# xmcd
#
# Track frame offsets: 
#        170
#        22655
#        45375
#        64202
#        82615
#        104620
#        125437
#        143025
#
# Disc length: 2106 seconds
#
# Revision: 2
# Processed by: cddbd v1.5.2PL0 Copyright (c) Steve Scherf et al.
# Submitted via: ExactAudioCopy v1.0b3
#
DISCID=5a083808
DTITLE=Tyrone Davis - I'll Always Love You
DYEAR=1991
DGENRE=Soul
TTITLE0=I'll Always Love You
TTITLE1=Prove My Love
TTITLE2=Talk To You
TTITLE3=Let Me Love You
TTITLE4=Do U Still Love Me
TTITLE5=Can I Change Your Mind
TTITLE6=A Woman Needs To Be Loved
TTITLE7=Mom's Apple Pie
EXTD=
EXTT0=
EXTT1=
EXTT2=
EXTT3=
EXTT4=
EXTT5=
EXTT6=
EXTT7=
PLAYORDER=
